<svg xmlns="http://www.w3.org/2000/svg" xmlns:xlink="http://www.w3.org/1999/xlink" width="1280" height="800" viewBox="0 0 1280 800">
  <defs>
    <clipPath id="clip-Web_1280_3">
      <rect width="1280" height="800"/>
    </clipPath>
  </defs>
  <g id="Web_1280_3" data-name="Web 1280 – 3" clip-path="url(#clip-Web_1280_3)">
    <rect width="1280" height="800" fill="#0f1943"/>
    <path id="Path_231" data-name="Path 231" d="M20,0H219a20,20,0,0,1,20,20V219a20,20,0,0,1-20,20H20A20,20,0,0,1,0,219V20A20,20,0,0,1,20,0Z" transform="translate(138 229)" fill="rgba(15,25,67,0.37)"/>
    <g id="glassy_effect" data-name="glassy effect">
      <g id="Group_84" data-name="Group 84" transform="translate(18.818 22.721)">
        <g id="brackets" transform="translate(188.818 146.292)">
          <path id="Path_3" data-name="Path 3" d="M301.732,43.159h-3.709a2.023,2.023,0,1,1,0-4.046h3.709a3.038,3.038,0,0,0,3.035-3.035v-9.1a2.023,2.023,0,0,1,.593-1.431l3.964-3.964-3.964-3.964a2.023,2.023,0,0,1-.593-1.431v-9.1a3.038,3.038,0,0,0-3.035-3.035h-3.709a2.023,2.023,0,1,1,0-4.046h3.709a7.089,7.089,0,0,1,7.081,7.081v8.266l4.8,4.8a2.023,2.023,0,0,1,0,2.861l-4.8,4.8v8.266A7.089,7.089,0,0,1,301.732,43.159Z" transform="translate(-269.026 0)" fill="#6271dc"/>
          <path id="Path_4" data-name="Path 4" d="M16.184,43.159H12.475a7.089,7.089,0,0,1-7.081-7.081V27.812l-4.8-4.8a2.023,2.023,0,0,1,0-2.861l4.8-4.8V7.081A7.089,7.089,0,0,1,12.475,0h3.709a2.023,2.023,0,0,1,0,4.046H12.475A3.038,3.038,0,0,0,9.44,7.081v9.1a2.023,2.023,0,0,1-.593,1.431L4.883,21.579l3.964,3.964a2.023,2.023,0,0,1,.593,1.431v9.1a3.038,3.038,0,0,0,3.035,3.035h3.709a2.023,2.023,0,0,1,0,4.046Z" transform="translate(0.001 0)" fill="#6271dc"/>
        </g>
        <g id="brackets-2" data-name="brackets" transform="translate(0 49.025)">
          <path id="Path_3-2" data-name="Path 3" d="M307.464,86.317h-7.418a4.046,4.046,0,0,1,0-8.092h7.418a6.076,6.076,0,0,0,6.069-6.069V53.948a4.047,4.047,0,0,1,1.185-2.861l7.929-7.929-7.928-7.929a4.046,4.046,0,0,1-1.185-2.861V14.161a6.076,6.076,0,0,0-6.069-6.069h-7.418a4.046,4.046,0,0,1,0-8.092h7.418a14.177,14.177,0,0,1,14.161,14.161V30.693l9.6,9.6a4.046,4.046,0,0,1,0,5.722l-9.6,9.6V72.156A14.177,14.177,0,0,1,307.464,86.317Z" transform="translate(-242.052 0)" fill="#87b4ea"/>
          <path id="Path_4-2" data-name="Path 4" d="M32.368,86.317H24.95A14.177,14.177,0,0,1,10.789,72.156V55.624l-9.6-9.6a4.046,4.046,0,0,1,0-5.722l9.6-9.6V14.161A14.177,14.177,0,0,1,24.95,0h7.418a4.046,4.046,0,1,1,0,8.092H24.95a6.076,6.076,0,0,0-6.069,6.069V32.369A4.047,4.047,0,0,1,17.7,35.23L9.768,43.158,17.7,51.087a4.046,4.046,0,0,1,1.185,2.861V72.156a6.076,6.076,0,0,0,6.069,6.069h7.418a4.046,4.046,0,0,1,0,8.092Z" transform="translate(0.001 0)" fill="#87b4ea"/>
        </g>
        <g id="brackets-3" data-name="brackets" transform="translate(239.182)">
          <path id="Path_3-3" data-name="Path 3" d="M304.119,61.134h-5.254a2.866,2.866,0,0,1,0-5.731h5.254a4.3,4.3,0,0,0,4.3-4.3v-12.9a2.866,2.866,0,0,1,.839-2.026l5.616-5.615-5.615-5.615a2.866,2.866,0,0,1-.839-2.026V10.03a4.3,4.3,0,0,0-4.3-4.3h-5.254a2.866,2.866,0,0,1,0-5.731h5.254a10.041,10.041,0,0,1,10.03,10.03V21.738l6.8,6.8a2.866,2.866,0,0,1,0,4.053l-6.8,6.8V51.1A10.041,10.041,0,0,1,304.119,61.134Z" transform="translate(-257.791 0)" fill="#f45f88"/>
          <path id="Path_4-3" data-name="Path 4" d="M22.925,61.134H17.671A10.041,10.041,0,0,1,7.641,51.1V39.4l-6.8-6.8a2.866,2.866,0,0,1,0-4.053l6.8-6.8V10.03A10.041,10.041,0,0,1,17.671,0h5.254a2.866,2.866,0,1,1,0,5.731H17.671a4.3,4.3,0,0,0-4.3,4.3v12.9a2.866,2.866,0,0,1-.839,2.026L6.918,30.567l5.615,5.615a2.866,2.866,0,0,1,.839,2.026V51.1a4.3,4.3,0,0,0,4.3,4.3h5.254a2.866,2.866,0,1,1,0,5.731Z" transform="translate(0.001 0)" fill="#f45f88"/>
        </g>
      </g>
      <g id="Group_87" data-name="Group 87" transform="matrix(-1, -0.017, 0.017, -1, 358.324, 762.802)">
        <g id="brackets-4" data-name="brackets" transform="translate(188.818 146.292)">
          <path id="Path_3-4" data-name="Path 3" d="M5.732,43.159H2.023a2.023,2.023,0,1,1,0-4.046H5.732a3.038,3.038,0,0,0,3.035-3.035v-9.1a2.023,2.023,0,0,1,.593-1.431l3.964-3.964L9.359,17.615a2.023,2.023,0,0,1-.593-1.431v-9.1A3.038,3.038,0,0,0,5.732,4.046H2.023A2.023,2.023,0,1,1,2.023,0H5.732a7.089,7.089,0,0,1,7.081,7.081v8.266l4.8,4.8a2.023,2.023,0,0,1,0,2.861l-4.8,4.8v8.266A7.089,7.089,0,0,1,5.732,43.159Z" transform="translate(26.974 0)" fill="#6271dc"/>
          <path id="Path_4-4" data-name="Path 4" d="M16.185,43.159H12.476a7.089,7.089,0,0,1-7.081-7.081V27.812l-4.8-4.8a2.023,2.023,0,0,1,0-2.861l4.8-4.8V7.081A7.089,7.089,0,0,1,12.476,0h3.709a2.023,2.023,0,0,1,0,4.046H12.476A3.038,3.038,0,0,0,9.441,7.081v9.1a2.023,2.023,0,0,1-.593,1.431L4.884,21.579l3.964,3.964a2.023,2.023,0,0,1,.593,1.431v9.1a3.038,3.038,0,0,0,3.035,3.035h3.709a2.023,2.023,0,0,1,0,4.046Z" transform="translate(0 0)" fill="#6271dc"/>
        </g>
        <g id="brackets-5" data-name="brackets" transform="translate(0 49.025)">
          <path id="Path_3-5" data-name="Path 3" d="M11.464,86.317H4.046a4.046,4.046,0,0,1,0-8.092h7.418a6.076,6.076,0,0,0,6.069-6.069V53.948a4.047,4.047,0,0,1,1.185-2.861l7.929-7.929L18.718,35.23a4.046,4.046,0,0,1-1.185-2.861V14.161a6.076,6.076,0,0,0-6.069-6.069H4.046A4.046,4.046,0,0,1,4.046,0h7.418A14.177,14.177,0,0,1,25.625,14.161V30.693l9.6,9.6a4.046,4.046,0,0,1,0,5.722l-9.6,9.6V72.156A14.177,14.177,0,0,1,11.464,86.317Z" transform="translate(53.948 0)" fill="#f0628d"/>
          <path id="Path_4-5" data-name="Path 4" d="M32.369,86.317H24.951A14.177,14.177,0,0,1,10.79,72.156V55.624l-9.6-9.6a4.046,4.046,0,0,1,0-5.722l9.6-9.6V14.161A14.177,14.177,0,0,1,24.951,0h7.418a4.046,4.046,0,1,1,0,8.092H24.951a6.076,6.076,0,0,0-6.069,6.069V32.369A4.047,4.047,0,0,1,17.7,35.23L9.768,43.158,17.7,51.087a4.046,4.046,0,0,1,1.185,2.861V72.156a6.076,6.076,0,0,0,6.069,6.069h7.418a4.046,4.046,0,0,1,0,8.092Z" transform="translate(0 0)" fill="#f0628d"/>
        </g>
        <g id="brackets-6" data-name="brackets" transform="translate(239.182 0)">
          <path id="Path_3-6" data-name="Path 3" d="M8.119,61.134H2.866a2.866,2.866,0,0,1,0-5.731H8.119a4.3,4.3,0,0,0,4.3-4.3v-12.9a2.866,2.866,0,0,1,.839-2.026l5.616-5.615-5.615-5.615a2.866,2.866,0,0,1-.839-2.026V10.03a4.3,4.3,0,0,0-4.3-4.3H2.866A2.866,2.866,0,0,1,2.866,0H8.119a10.041,10.041,0,0,1,10.03,10.03V21.738l6.8,6.8a2.866,2.866,0,0,1,0,4.053l-6.8,6.8V51.1A10.041,10.041,0,0,1,8.119,61.134Z" transform="translate(38.209 0)" fill="#87b4ea"/>
          <path id="Path_4-6" data-name="Path 4" d="M22.925,61.134H17.672A10.041,10.041,0,0,1,7.642,51.1V39.4l-6.8-6.8a2.866,2.866,0,0,1,0-4.053l6.8-6.8V10.03A10.041,10.041,0,0,1,17.672,0h5.254a2.866,2.866,0,1,1,0,5.731H17.672a4.3,4.3,0,0,0-4.3,4.3v12.9a2.866,2.866,0,0,1-.839,2.026L6.918,30.567l5.615,5.615a2.866,2.866,0,0,1,.839,2.026V51.1a4.3,4.3,0,0,0,4.3,4.3h5.254a2.866,2.866,0,1,1,0,5.731Z" transform="translate(0 0)" fill="#87b4ea"/>
        </g>
      </g>
      <g id="Group_85" data-name="Group 85" transform="translate(1255.515 212.171) rotate(-180)">
        <g id="brackets-7" data-name="brackets" transform="translate(188.818 146.292)">
          <path id="Path_3-7" data-name="Path 3" d="M5.732,43.159H2.023a2.023,2.023,0,1,1,0-4.046H5.732a3.038,3.038,0,0,0,3.035-3.035v-9.1a2.023,2.023,0,0,1,.593-1.431l3.964-3.964L9.359,17.615a2.023,2.023,0,0,1-.593-1.431v-9.1A3.038,3.038,0,0,0,5.732,4.046H2.023A2.023,2.023,0,1,1,2.023,0H5.732a7.089,7.089,0,0,1,7.081,7.081v8.266l4.8,4.8a2.023,2.023,0,0,1,0,2.861l-4.8,4.8v8.266A7.089,7.089,0,0,1,5.732,43.159Z" transform="translate(26.974 0)" fill="#6271dc"/>
          <path id="Path_4-7" data-name="Path 4" d="M16.185,43.159H12.476a7.089,7.089,0,0,1-7.081-7.081V27.812l-4.8-4.8a2.023,2.023,0,0,1,0-2.861l4.8-4.8V7.081A7.089,7.089,0,0,1,12.476,0h3.709a2.023,2.023,0,0,1,0,4.046H12.476A3.038,3.038,0,0,0,9.441,7.081v9.1a2.023,2.023,0,0,1-.593,1.431L4.884,21.579l3.964,3.964a2.023,2.023,0,0,1,.593,1.431v9.1a3.038,3.038,0,0,0,3.035,3.035h3.709a2.023,2.023,0,0,1,0,4.046Z" transform="translate(0 0)" fill="#6271dc"/>
        </g>
        <g id="brackets-8" data-name="brackets" transform="translate(0 49.025)">
          <path id="Path_3-8" data-name="Path 3" d="M11.464,86.317H4.046a4.046,4.046,0,0,1,0-8.092h7.418a6.076,6.076,0,0,0,6.069-6.069V53.948a4.047,4.047,0,0,1,1.185-2.861l7.929-7.929L18.718,35.23a4.046,4.046,0,0,1-1.185-2.861V14.161a6.076,6.076,0,0,0-6.069-6.069H4.046A4.046,4.046,0,0,1,4.046,0h7.418A14.177,14.177,0,0,1,25.625,14.161V30.693l9.6,9.6a4.046,4.046,0,0,1,0,5.722l-9.6,9.6V72.156A14.177,14.177,0,0,1,11.464,86.317Z" transform="translate(53.948 0)" fill="#87b4ea"/>
          <path id="Path_4-8" data-name="Path 4" d="M32.369,86.317H24.951A14.177,14.177,0,0,1,10.79,72.156V55.624l-9.6-9.6a4.046,4.046,0,0,1,0-5.722l9.6-9.6V14.161A14.177,14.177,0,0,1,24.951,0h7.418a4.046,4.046,0,1,1,0,8.092H24.951a6.076,6.076,0,0,0-6.069,6.069V32.369A4.047,4.047,0,0,1,17.7,35.23L9.768,43.158,17.7,51.087a4.046,4.046,0,0,1,1.185,2.861V72.156a6.076,6.076,0,0,0,6.069,6.069h7.418a4.046,4.046,0,0,1,0,8.092Z" transform="translate(0 0)" fill="#87b4ea"/>
        </g>
        <g id="brackets-9" data-name="brackets" transform="translate(239.182)">
          <path id="Path_3-9" data-name="Path 3" d="M8.119,61.134H2.866a2.866,2.866,0,0,1,0-5.731H8.119a4.3,4.3,0,0,0,4.3-4.3v-12.9a2.866,2.866,0,0,1,.839-2.026l5.616-5.615-5.615-5.615a2.866,2.866,0,0,1-.839-2.026V10.03a4.3,4.3,0,0,0-4.3-4.3H2.866A2.866,2.866,0,0,1,2.866,0H8.119a10.041,10.041,0,0,1,10.03,10.03V21.738l6.8,6.8a2.866,2.866,0,0,1,0,4.053l-6.8,6.8V51.1A10.041,10.041,0,0,1,8.119,61.134Z" transform="translate(38.209 0)" fill="#f45f88"/>
          <path id="Path_4-9" data-name="Path 4" d="M22.925,61.134H17.672A10.041,10.041,0,0,1,7.642,51.1V39.4l-6.8-6.8a2.866,2.866,0,0,1,0-4.053l6.8-6.8V10.03A10.041,10.041,0,0,1,17.672,0h5.254a2.866,2.866,0,1,1,0,5.731H17.672a4.3,4.3,0,0,0-4.3,4.3v12.9a2.866,2.866,0,0,1-.839,2.026L6.918,30.567l5.615,5.615a2.866,2.866,0,0,1,.839,2.026V51.1a4.3,4.3,0,0,0,4.3,4.3h5.254a2.866,2.866,0,1,1,0,5.731Z" fill="#f45f88"/>
        </g>
      </g>
      <g id="Group_86" data-name="Group 86" transform="translate(952.333 588.85)">
        <g id="brackets-10" data-name="brackets" transform="translate(188.818 146.292)">
          <path id="Path_3-10" data-name="Path 3" d="M5.732,43.159H2.023a2.023,2.023,0,1,1,0-4.046H5.732a3.038,3.038,0,0,0,3.035-3.035v-9.1a2.023,2.023,0,0,1,.593-1.431l3.964-3.964L9.359,17.615a2.023,2.023,0,0,1-.593-1.431v-9.1A3.038,3.038,0,0,0,5.732,4.046H2.023A2.023,2.023,0,1,1,2.023,0H5.732a7.089,7.089,0,0,1,7.081,7.081v8.266l4.8,4.8a2.023,2.023,0,0,1,0,2.861l-4.8,4.8v8.266A7.089,7.089,0,0,1,5.732,43.159Z" transform="translate(26.974 0)" fill="#6271dc"/>
          <path id="Path_4-10" data-name="Path 4" d="M16.185,43.159H12.476a7.089,7.089,0,0,1-7.081-7.081V27.812l-4.8-4.8a2.023,2.023,0,0,1,0-2.861l4.8-4.8V7.081A7.089,7.089,0,0,1,12.476,0h3.709a2.023,2.023,0,0,1,0,4.046H12.476A3.038,3.038,0,0,0,9.441,7.081v9.1a2.023,2.023,0,0,1-.593,1.431L4.884,21.579l3.964,3.964a2.023,2.023,0,0,1,.593,1.431v9.1a3.038,3.038,0,0,0,3.035,3.035h3.709a2.023,2.023,0,0,1,0,4.046Z" transform="translate(0 0)" fill="#6271dc"/>
        </g>
        <g id="brackets-11" data-name="brackets" transform="translate(0 49.025)">
          <path id="Path_3-11" data-name="Path 3" d="M11.464,86.317H4.046a4.046,4.046,0,0,1,0-8.092h7.418a6.076,6.076,0,0,0,6.069-6.069V53.948a4.047,4.047,0,0,1,1.185-2.861l7.929-7.929L18.718,35.23a4.046,4.046,0,0,1-1.185-2.861V14.161a6.076,6.076,0,0,0-6.069-6.069H4.046A4.046,4.046,0,0,1,4.046,0h7.418A14.177,14.177,0,0,1,25.625,14.161V30.693l9.6,9.6a4.046,4.046,0,0,1,0,5.722l-9.6,9.6V72.156A14.177,14.177,0,0,1,11.464,86.317Z" transform="translate(53.948 0)" fill="#87b4ea"/>
          <path id="Path_4-11" data-name="Path 4" d="M32.369,86.317H24.951A14.177,14.177,0,0,1,10.79,72.156V55.624l-9.6-9.6a4.046,4.046,0,0,1,0-5.722l9.6-9.6V14.161A14.177,14.177,0,0,1,24.951,0h7.418a4.046,4.046,0,1,1,0,8.092H24.951a6.076,6.076,0,0,0-6.069,6.069V32.369A4.047,4.047,0,0,1,17.7,35.23L9.768,43.158,17.7,51.087a4.046,4.046,0,0,1,1.185,2.861V72.156a6.076,6.076,0,0,0,6.069,6.069h7.418a4.046,4.046,0,0,1,0,8.092Z" transform="translate(0 0)" fill="#87b4ea"/>
        </g>
        <g id="brackets-12" data-name="brackets" transform="translate(239.182 0)">
          <path id="Path_3-12" data-name="Path 3" d="M8.119,61.134H2.866a2.866,2.866,0,0,1,0-5.731H8.119a4.3,4.3,0,0,0,4.3-4.3v-12.9a2.866,2.866,0,0,1,.839-2.026l5.616-5.615-5.615-5.615a2.866,2.866,0,0,1-.839-2.026V10.03a4.3,4.3,0,0,0-4.3-4.3H2.866A2.866,2.866,0,0,1,2.866,0H8.119a10.041,10.041,0,0,1,10.03,10.03V21.738l6.8,6.8a2.866,2.866,0,0,1,0,4.053l-6.8,6.8V51.1A10.041,10.041,0,0,1,8.119,61.134Z" transform="translate(38.209 0)" fill="#f45f88"/>
          <path id="Path_4-12" data-name="Path 4" d="M22.925,61.134H17.672A10.041,10.041,0,0,1,7.642,51.1V39.4l-6.8-6.8a2.866,2.866,0,0,1,0-4.053l6.8-6.8V10.03A10.041,10.041,0,0,1,17.672,0h5.254a2.866,2.866,0,1,1,0,5.731H17.672a4.3,4.3,0,0,0-4.3,4.3v12.9a2.866,2.866,0,0,1-.839,2.026L6.918,30.567l5.615,5.615a2.866,2.866,0,0,1,.839,2.026V51.1a4.3,4.3,0,0,0,4.3,4.3h5.254a2.866,2.866,0,1,1,0,5.731Z" transform="translate(0 0)" fill="#f45f88"/>
        </g>
      </g>
      <rect id="Rectangle_81" data-name="Rectangle 81" width="1280" height="800" fill="#fff"/>
    </g>
  </g>
</svg>
